<?xml version="1.0" encoding="utf-8"?>
<!-- Generator: Adobe Illustrator 23.0.1, SVG Export Plug-In . SVG Version: 6.00 Build 0)  -->
<svg version="1.1" id="Layer_1" xmlns="http://www.w3.org/2000/svg" xmlns:xlink="http://www.w3.org/1999/xlink" x="0px" y="0px"
	 viewBox="0 0 1000 1000" style="enable-background:new 0 0 1000 1000;" xml:space="preserve">
<g>
	<path d="M281.66,452.06c-1.12-6.04-4.04-11.48-8.22-15.73c-0.82-0.83-1.68-1.61-2.59-2.34c5.32-5.23,8.73-12.22,9.38-19.73
		c0.09-1.05-0.4-2.07-1.29-2.66c-9.21-6.09-21.21-6.84-31.31-1.96c-3.07,1.48-5.83,3.43-8.23,5.73
		c-15.09-32.15-47.74-54.41-85.6-54.41c-52.2,0-94.52,42.32-94.52,94.52S101.6,550,153.8,550c50.59,0,91.9-39.75,94.4-89.72
		c0.53,0.21,1.06,0.41,1.6,0.6c7.92,2.64,16.59,1.96,24.04-1.64c2.44-1.18,4.74-2.67,6.85-4.46
		C281.48,454.11,281.85,453.07,281.66,452.06z M222.95,501.99c-0.34,0.5-0.84,0.87-1.41,1.07c-67.16,23.38-127.58,2.87-135.37,0.02
		c-0.55-0.2-1.03-0.57-1.36-1.05c-13.95-20.27-13.53-43.05-12.73-51.79c0.17-1.87,2.09-3.03,3.84-2.36
		c75.54,29,140.35,6.46,155.78,0.17c1.77-0.72,3.73,0.5,3.87,2.4C237.79,478.82,225.72,498,222.95,501.99z"/>
	<g>
		<path d="M125.55,494.22c-0.94,0-1.88-0.36-2.6-1.08c-13.66-13.66-28.06-5.86-28.67-5.52c-1.76,0.99-4,0.36-5-1.4
			c-0.99-1.76-0.39-3.99,1.37-4.99c6.77-3.87,23.33-7.45,37.49,6.72c1.44,1.43,1.44,3.76,0,5.2
			C127.43,493.86,126.49,494.22,125.55,494.22z"/>
	</g>
	<g>
		<path d="M183.12,494.22c-0.94,0-1.88-0.36-2.6-1.08c-1.44-1.43-1.44-3.76,0-5.2c14.16-14.17,30.72-10.59,37.49-6.72
			c1.76,1.01,2.37,3.25,1.37,5.01c-1,1.76-3.24,2.37-5,1.37c-0.65-0.36-15.03-8.11-28.66,5.53
			C185,493.86,184.06,494.22,183.12,494.22z"/>
	</g>
</g>
<path d="M894.45,467.41c-2.99-3.03-6.43-5.09-10.34-6.18c-3.91-1.09-8.68-1.97-14.32-2.65c-3.62-0.42-6.26-0.86-7.95-1.32
	c-1.68-0.46-2.52-1.24-2.52-2.33c0-2.19,3.11-3.28,9.33-3.28c7.23,0,13.87,1.68,19.93,5.05l7.82-18.79
	c-3.53-1.85-7.8-3.26-12.8-4.23c-5-0.97-10.11-1.45-15.32-1.45c-7.49,0-13.9,1.05-19.23,3.15c-5.34,2.1-9.36,4.92-12.04,8.45
	c-2.69,3.53-4.04,7.53-4.04,11.98c0,5.63,1.49,9.96,4.48,12.99c2.98,3.03,6.45,5.07,10.41,6.12c3.95,1.05,8.74,1.91,14.38,2.59
	c3.7,0.42,6.37,0.84,8.01,1.26c1.64,0.42,2.46,1.18,2.46,2.27c0,1.09-0.65,1.91-1.95,2.46c-1.3,0.55-3.59,0.82-6.87,0.82
	c-4.12,0-8.37-0.55-12.74-1.64c-4.37-1.09-8.16-2.61-11.35-4.54l-5.22,12.54l-22.8-28.97l28.51-29.89h-33.68l-19.8,20.05v-44.65
	h-28.51v23.34c-9.71,0.05-17.06,2.95-22.06,8.7v-7.44H709.1v23.55c-0.84-2.67-2.01-5.21-3.51-7.6c-3.41-5.42-8.16-9.65-14.25-12.68
	c-6.1-3.03-13.01-4.54-20.75-4.54c-7.65,0-14.53,1.51-20.62,4.54c-4.57,2.27-8.39,5.21-11.47,8.82l4.2-12.1h-24.97l-12.36,36.83
	l-11.98-36.83h-24.22l-12.36,36.45l-11.86-36.45h-26.99l4.14,11.92c-3.03-3.53-6.79-6.41-11.28-8.64
	c-6.1-3.03-13.01-4.54-20.75-4.54c-7.65,0-14.53,1.51-20.62,4.54c-4.92,2.44-8.97,5.68-12.16,9.69v-14.23
	c-9.84,0-17.28,2.9-22.32,8.7v-7.44h-27.12v36.15c-0.69-1.75-1.61-3.37-2.76-4.87c-2.86-3.7-6.9-6.52-12.11-8.45
	c4.04-2.02,7.08-4.67,9.14-7.95c2.06-3.28,3.09-6.98,3.09-11.1c0-6.98-3.01-12.57-9.02-16.77c-6.01-4.2-14.9-6.31-26.68-6.31h-47.17
	v88.29h49.69c12.11,0,21.36-2.12,27.75-6.37c3.85-2.56,6.53-5.75,8.06-9.58v15.95h28.5v-30.65c0-9.92,4.88-14.88,14.63-14.88
	c0.2,0,0.42,0.01,0.62,0.01c-1.1,3.42-1.64,7.07-1.64,10.96c0,6.9,1.72,13.05,5.17,18.48c3.45,5.42,8.22,9.67,14.32,12.74
	c6.1,3.07,12.97,4.6,20.62,4.6c7.74,0,14.65-1.53,20.75-4.6c6.1-3.07,10.85-7.32,14.25-12.74c3.29-5.23,4.98-11.15,5.1-17.76
	l11.75,33.84h27.75l10.85-31.91l10.47,31.91h27.75l11.75-33.84c0.12,6.6,1.83,12.53,5.16,17.76c3.45,5.42,8.22,9.67,14.32,12.74
	c6.1,3.07,12.97,4.6,20.62,4.6c7.74,0,14.65-1.53,20.75-4.6c6.1-3.07,10.85-7.32,14.25-12.74c1.5-2.39,2.67-4.92,3.51-7.6v23.68
	h28.51v-30.65c0-9.92,4.88-14.88,14.63-14.88c1.86,0,3.88,0.16,6.05,0.47v45.06h28.51v-16.27l4.54-4.92l16.77,21.19h33.58
	c1.31,0.37,2.69,0.72,4.15,1.04c5.72,1.26,11.52,1.89,17.41,1.89c7.65,0,14.17-1.05,19.55-3.15c5.38-2.1,9.42-4.92,12.11-8.45
	c2.69-3.53,4.04-7.44,4.04-11.73C898.93,474.77,897.43,470.44,894.45,467.41z M351.61,433.33h13.87c6.47,0,9.71,2.19,9.71,6.56
	c0,4.37-3.24,6.56-9.71,6.56h-13.87V433.33z M369.52,480h-17.91v-13.87h17.91c6.56,0,9.84,2.31,9.84,6.94
	C379.35,477.69,376.07,480,369.52,480z M498.15,476.28c-2.1,2.4-4.79,3.6-8.07,3.6c-3.28,0-5.97-1.2-8.07-3.6
	c-2.1-2.4-3.15-5.74-3.15-10.03c0-4.29,1.05-7.61,3.15-9.96c2.1-2.35,4.79-3.53,8.07-3.53c3.28,0,5.97,1.18,8.07,3.53
	c2.1,2.36,3.15,5.68,3.15,9.96C501.3,470.54,500.25,473.88,498.15,476.28z M678.66,476.28c-2.1,2.4-4.79,3.6-8.07,3.6
	c-3.28,0-5.97-1.2-8.07-3.6c-2.1-2.4-3.15-5.74-3.15-10.03c0-4.29,1.05-7.61,3.15-9.96c2.1-2.35,4.79-3.53,8.07-3.53
	c3.28,0,5.97,1.18,8.07,3.53c2.1,2.36,3.15,5.68,3.15,9.96C681.81,470.54,680.76,473.88,678.66,476.28z"/>
</svg>
