<?xml version="1.0" encoding="iso-8859-1"?>
<!-- Generator: Adobe Illustrator 16.0.0, SVG Export Plug-In . SVG Version: 6.00 Build 0)  -->
<!DOCTYPE svg PUBLIC "-//W3C//DTD SVG 1.1//EN" "http://www.w3.org/Graphics/SVG/1.1/DTD/svg11.dtd">
<svg version="1.1" id="Capa_1" xmlns="http://www.w3.org/2000/svg" xmlns:xlink="http://www.w3.org/1999/xlink" x="0px" y="0px"
	 width="31.47px" height="31.47px" viewBox="0 0 31.47 31.47" style="enable-background:new 0 0 31.47 31.47;" xml:space="preserve"
	>
<g>
	<path id="Behance" d="M28.311,8.465h-8.166V6.436h8.166V8.465L28.311,8.465z M15.829,16.781c0.526,0.817,0.79,1.81,0.79,2.971
		c0,1.205-0.297,2.283-0.901,3.236c-0.384,0.631-0.862,1.164-1.435,1.592c-0.646,0.496-1.41,0.838-2.288,1.021
		c-0.882,0.183-1.835,0.272-2.862,0.272H0V5.597h9.792c2.468,0.039,4.218,0.754,5.251,2.16c0.62,0.861,0.927,1.894,0.927,3.095
		c0,1.241-0.312,2.232-0.937,2.985c-0.348,0.423-0.862,0.808-1.544,1.154C14.522,15.37,15.305,15.963,15.829,16.781z M4.676,13.591
		h4.291c0.882,0,1.595-0.169,2.143-0.503c0.549-0.335,0.823-0.93,0.823-1.784c0-0.942-0.362-1.568-1.089-1.869
		c-0.625-0.21-1.424-0.318-2.393-0.318H4.676V13.591z M12.346,19.462c0-1.053-0.431-1.78-1.29-2.172
		c-0.48-0.221-1.158-0.336-2.027-0.344H4.676v5.403H8.96c0.881,0,1.562-0.114,2.054-0.356
		C11.901,21.553,12.346,20.712,12.346,19.462z M31.34,16.164c0.1,0.664,0.145,1.626,0.125,2.884H20.891
		c0.059,1.46,0.562,2.48,1.519,3.064c0.575,0.366,1.274,0.545,2.093,0.545c0.863,0,1.566-0.218,2.107-0.666
		c0.295-0.238,0.555-0.574,0.779-0.996h3.877c-0.103,0.861-0.568,1.734-1.408,2.625c-1.299,1.41-3.121,2.121-5.461,2.121
		c-1.935,0-3.638-0.6-5.117-1.789c-1.475-1.192-2.215-3.131-2.215-5.817c0-2.519,0.666-4.449,2-5.79
		c1.338-1.345,3.065-2.014,5.195-2.014c1.262,0,2.4,0.225,3.416,0.678c1.012,0.455,1.848,1.169,2.506,2.151
		C30.777,14.025,31.161,15.025,31.34,16.164z M27.523,16.543c-0.069-1.009-0.407-1.773-1.015-2.295
		c-0.603-0.525-1.354-0.787-2.25-0.787c-0.978,0-1.729,0.28-2.267,0.832c-0.539,0.553-0.874,1.301-1.012,2.25H27.523z"/>
</g>
<g>
</g>
<g>
</g>
<g>
</g>
<g>
</g>
<g>
</g>
<g>
</g>
<g>
</g>
<g>
</g>
<g>
</g>
<g>
</g>
<g>
</g>
<g>
</g>
<g>
</g>
<g>
</g>
<g>
</g>
</svg>
