<?xml version="1.0" encoding="utf-8"?>
<!-- Generator: Adobe Illustrator 23.0.1, SVG Export Plug-In . SVG Version: 6.00 Build 0)  -->
<svg version="1.1" id="Layer_1" xmlns="http://www.w3.org/2000/svg" xmlns:xlink="http://www.w3.org/1999/xlink" x="0px" y="0px"
	 viewBox="0 0 8059.4 8192" style="enable-background:new 0 0 8059.4 8192;" xml:space="preserve">
<style type="text/css">
	.st0{fill:#FFFFFF;}
</style>
<title>Broworks.net logo</title>
<g>
	<path class="st0" d="M7780.8,3927.5c-38.1-206.1-137.7-391.8-280.6-536.7c-27.8-28.2-57.3-54.8-88.3-79.8
		c181.5-178.5,297.9-416.9,320-673.4c3.1-36-13.7-70.8-43.9-90.7c-314.3-207.9-723.7-233.5-1068.5-66.8
		c-104.8,50.6-199.1,117.2-280.9,195.5C5823.7,1578.5,4709.2,818.6,3417.1,818.6c-1781.5,0-3225.8,1444.2-3225.8,3225.8
		s1444.2,3225.8,3225.8,3225.8c1726.6,0,3136.3-1356.5,3221.6-3061.9c18,7.1,36.2,14.1,54.7,20.3c270.3,90.1,566.3,67.1,820.5-55.9
		c83.1-40.2,161.8-91.1,233.7-152.1C7774.6,3997.7,7787.2,3962.2,7780.8,3927.5z M5777.1,5631.6c-11.8,16.9-28.5,29.7-48,36.5
		c-2292,797.8-4353.9,98-4620,0.6c-18.8-6.9-35.1-19.5-46.5-36c-475.9-691.9-461.9-1469.2-434.6-1767.6
		c5.9-63.9,71.2-103.5,131.1-80.5c2578,989.7,4789.8,220.4,5316.6,5.9c60.3-24.5,127.2,17.1,132.2,81.9
		C6283.4,4840.9,5871.5,5495.6,5777.1,5631.6z"/>
	<g>
		<path class="st0" d="M2453,5366.4c-32.1,0-64.2-12.2-88.7-36.7c-466.1-466.1-957.7-200.1-978.3-188.5
			c-60.2,33.6-136.6,12.5-170.6-47.7c-33.9-60.1-13.2-136.2,46.7-170.4c231.2-132.1,796.1-254.3,1279.6,229.2
			c49,48.9,49,128.4,0,177.3C2517.2,5354.2,2485.1,5366.4,2453,5366.4z"/>
	</g>
	<g>
		<path class="st0" d="M4417.8,5366.4c-32.1,0-64.2-12.2-88.7-36.7c-49-48.9-49-128.4,0-177.3
			c483.4-483.5,1048.4-361.3,1279.6-229.2c60.1,34.4,81,111,46.7,171.1c-34.3,60-110.6,81-170.7,46.9
			c-22.2-12.3-512.8-276.7-978.2,188.6C4481.9,5354.2,4449.9,5366.4,4417.8,5366.4z"/>
	</g>
</g>
</svg>
