<?xml version="1.0" encoding="utf-8"?>
<!-- Generator: Adobe Illustrator 23.0.1, SVG Export Plug-In . SVG Version: 6.00 Build 0)  -->
<svg version="1.1" id="Layer_1" xmlns="http://www.w3.org/2000/svg" xmlns:xlink="http://www.w3.org/1999/xlink" x="0px" y="0px"
	 viewBox="0 0 1000 1000" style="enable-background:new 0 0 1000 1000;" xml:space="preserve">
<g>
	<path d="M897.84,488.8c-3.66-19.82-13.24-37.68-26.99-51.61c-2.68-2.71-5.51-5.27-8.49-7.68c17.45-17.17,28.65-40.09,30.78-64.76
		c0.3-3.46-1.32-6.81-4.22-8.72c-30.22-19.99-69.6-22.45-102.75-6.42c-10.07,4.87-19.15,11.27-27.01,18.8
		c-49.52-105.5-156.69-178.57-280.95-178.57C306.88,189.84,168,328.73,168,500.05s138.88,310.21,310.21,310.21
		c166.04,0,301.6-130.45,309.81-294.45c1.74,0.69,3.48,1.36,5.26,1.95c25.99,8.67,54.46,6.45,78.91-5.37
		c8-3.87,15.56-8.76,22.47-14.63C897.25,495.56,898.46,492.14,897.84,488.8z M705.15,652.69c-1.13,1.63-2.74,2.86-4.61,3.51
		c-220.41,76.72-418.7,9.43-444.28,0.06c-1.81-0.66-3.38-1.87-4.47-3.46c-45.77-66.54-44.42-141.28-41.79-169.99
		c0.56-6.15,6.84-9.96,12.61-7.74c247.92,95.18,460.61,21.2,511.28,0.57c5.79-2.36,12.23,1.64,12.72,7.88
		C753.85,576.65,714.23,639.61,705.15,652.69z"/>
	<g>
		<path d="M385.49,627.18c-3.09,0-6.17-1.18-8.53-3.53c-44.83-44.83-92.09-19.24-94.08-18.13c-5.79,3.23-13.14,1.2-16.41-4.59
			c-3.26-5.78-1.27-13.09,4.49-16.39c22.23-12.7,76.56-24.45,123.05,22.04c4.71,4.71,4.71,12.35,0,17.05
			C391.67,626.01,388.58,627.18,385.49,627.18z"/>
	</g>
	<g>
		<path d="M574.44,627.18c-3.09,0-6.17-1.18-8.53-3.53c-4.71-4.71-4.71-12.35,0-17.05c46.49-46.49,100.82-34.75,123.05-22.04
			c5.78,3.3,7.79,10.67,4.49,16.45c-3.3,5.77-10.64,7.78-16.41,4.51c-2.13-1.19-49.32-26.61-94.07,18.13
			C580.61,626.01,577.52,627.18,574.44,627.18z"/>
	</g>
</g>
</svg>
