<?xml version="1.0" encoding="utf-8"?>
<!-- Generator: Adobe Illustrator 23.0.1, SVG Export Plug-In . SVG Version: 6.00 Build 0)  -->
<svg version="1.1" id="Layer_1" xmlns="http://www.w3.org/2000/svg" xmlns:xlink="http://www.w3.org/1999/xlink" x="0px" y="0px"
	 viewBox="0 0 1000 1000" style="enable-background:new 0 0 1000 1000;" xml:space="preserve">
<g>
	<path d="M662.14,409.7c-1.37-7.39-4.94-14.06-10.07-19.25c-1-1.01-2.06-1.97-3.17-2.86c6.51-6.4,10.69-14.96,11.48-24.16
		c0.11-1.29-0.49-2.54-1.57-3.25c-11.28-7.46-25.96-8.38-38.33-2.4c-3.76,1.82-7.14,4.2-10.08,7.01
		c-18.47-39.36-58.45-66.62-104.81-66.62c-63.91,0-115.72,51.81-115.72,115.72s51.81,115.72,115.72,115.72
		c61.94,0,112.51-48.66,115.57-109.84c0.65,0.26,1.3,0.51,1.96,0.73c9.7,3.23,20.32,2.41,29.44-2c2.98-1.44,5.81-3.27,8.38-5.46
		C661.92,412.22,662.37,410.94,662.14,409.7z M590.26,470.83c-0.42,0.61-1.02,1.07-1.72,1.31c-82.22,28.62-156.19,3.52-165.74,0.02
		c-0.68-0.25-1.26-0.7-1.67-1.29c-17.07-24.82-16.57-52.71-15.59-63.41c0.21-2.29,2.55-3.71,4.7-2.89
		c92.49,35.51,171.83,7.91,190.73,0.21c2.16-0.88,4.56,0.61,4.74,2.94C608.43,442.47,593.65,465.95,590.26,470.83z"/>
	<g>
		<path d="M471.01,461.32c-1.15,0-2.3-0.44-3.18-1.32c-16.72-16.72-34.36-7.18-35.1-6.76c-2.16,1.21-4.9,0.45-6.12-1.71
			c-1.22-2.16-0.47-4.88,1.68-6.11c8.29-4.74,28.56-9.12,45.9,8.22c1.76,1.76,1.76,4.61,0,6.36
			C473.32,460.88,472.17,461.32,471.01,461.32z"/>
	</g>
	<g>
		<path d="M541.5,461.32c-1.15,0-2.3-0.44-3.18-1.32c-1.76-1.76-1.76-4.61,0-6.36c17.34-17.34,37.61-12.96,45.9-8.22
			c2.16,1.23,2.91,3.98,1.67,6.14c-1.23,2.15-3.97,2.9-6.12,1.68c-0.8-0.44-18.4-9.93-35.09,6.76
			C543.8,460.88,542.65,461.32,541.5,461.32z"/>
	</g>
</g>
<path d="M873.52,610.42c-3.66-3.71-7.88-6.23-12.66-7.57c-4.79-1.34-10.63-2.42-17.53-3.24c-4.43-0.51-7.67-1.05-9.73-1.62
	c-2.06-0.56-3.09-1.52-3.09-2.86c0-2.68,3.81-4.02,11.43-4.02c8.85,0,16.99,2.06,24.4,6.18l9.57-23.01
	c-4.32-2.26-9.55-3.99-15.67-5.17c-6.13-1.18-12.38-1.78-18.76-1.78c-9.16,0-17.01,1.29-23.55,3.86
	c-6.54,2.57-11.45,6.02-14.75,10.35c-3.3,4.32-4.94,9.21-4.94,14.67c0,6.9,1.83,12.2,5.48,15.9c3.65,3.71,7.9,6.2,12.74,7.49
	c4.84,1.29,10.71,2.34,17.6,3.17c4.53,0.52,7.8,1.03,9.81,1.54c2.01,0.52,3.01,1.44,3.01,2.78c0,1.34-0.8,2.34-2.39,3.01
	c-1.6,0.67-4.4,1-8.42,1c-5.05,0-10.24-0.67-15.6-2.01c-5.35-1.34-9.99-3.19-13.9-5.56l-6.39,15.36l-27.91-35.46l34.9-36.6h-41.23
	L741.7,591.4v-54.66h-34.9v28.57c-11.88,0.06-20.89,3.61-27.01,10.65v-9.11h-33.2v28.92c-1.03-3.3-2.44-6.44-4.3-9.38
	c-4.17-6.64-9.99-11.81-17.45-15.52c-7.47-3.71-15.93-5.56-25.4-5.56c-9.37,0-17.78,1.85-25.25,5.56
	c-5.59,2.78-10.27,6.37-14.04,10.79l5.14-14.81h-30.58l-15.13,45.09l-14.67-45.09h-29.65l-15.13,44.63l-14.52-44.63h-33.05
	l5.08,14.61c-3.71-4.33-8.31-7.86-13.82-10.6c-7.47-3.71-15.93-5.56-25.4-5.56c-9.37,0-17.78,1.85-25.25,5.56
	c-6.03,2.99-10.98,6.96-14.89,11.86V565.3c-12.05,0-21.16,3.55-27.33,10.66v-9.11h-33.2v44.29c-0.84-2.15-1.96-4.15-3.38-5.99
	c-3.5-4.53-8.44-7.98-14.82-10.35c4.94-2.47,8.67-5.71,11.2-9.73c2.52-4.02,3.78-8.54,3.78-13.59c0-8.54-3.68-15.39-11.04-20.54
	c-7.36-5.15-18.25-7.72-32.66-7.72h-57.75v108.09h60.84c14.82,0,26.15-2.6,33.97-7.8c4.71-3.13,8-7.04,9.87-11.73v19.52h34.9v-37.52
	c0-12.15,5.97-18.22,17.91-18.22c0.26,0,0.53,0.01,0.79,0.02c-1.34,4.19-2.04,8.66-2.04,13.42c0,8.44,2.11,15.98,6.33,22.62
	c4.22,6.64,10.06,11.84,17.53,15.6c7.46,3.76,15.88,5.64,25.25,5.64c9.47,0,17.94-1.88,25.4-5.64c7.46-3.76,13.28-8.96,17.45-15.6
	c4.03-6.42,6.09-13.68,6.23-21.78l14.4,41.47h33.97l13.28-39.07l12.82,39.07h33.97l14.4-41.47c0.14,8.1,2.22,15.36,6.3,21.78
	c4.22,6.64,10.06,11.84,17.53,15.6c7.46,3.76,15.88,5.64,25.25,5.64c9.47,0,17.94-1.88,25.4-5.64c7.46-3.76,13.28-8.96,17.45-15.6
	c1.85-2.95,3.27-6.08,4.3-9.38v29.07h34.9v-37.52c0-12.15,5.97-18.22,17.91-18.22c2.27,0,4.75,0.2,7.4,0.58v55.17h34.9v-19.92
	l5.56-6.02l20.54,25.94h41.12c1.61,0.45,3.3,0.88,5.08,1.27c7,1.54,14.1,2.32,21.31,2.32c9.37,0,17.35-1.29,23.94-3.86
	c6.59-2.57,11.53-6.02,14.82-10.35c3.29-4.32,4.94-9.11,4.94-14.36C879,619.43,877.17,614.13,873.52,610.42z M208.91,568.7h16.99
	c7.93,0,11.89,2.68,11.89,8.03c0,5.35-3.96,8.03-11.89,8.03h-16.99V568.7z M230.83,625.83h-21.93v-16.99h21.93
	c8.03,0,12.05,2.83,12.05,8.49C242.88,623,238.86,625.83,230.83,625.83z M388.32,621.28c-2.57,2.93-5.87,4.4-9.88,4.4
	c-4.01,0-7.31-1.47-9.88-4.4c-2.57-2.93-3.86-7.03-3.86-12.28c0-5.25,1.29-9.32,3.86-12.2c2.57-2.88,5.87-4.32,9.88-4.32
	c4.02,0,7.31,1.44,9.88,4.32c2.57,2.88,3.86,6.95,3.86,12.2C392.18,614.25,390.89,618.34,388.32,621.28z M609.32,621.28
	c-2.57,2.93-5.87,4.4-9.88,4.4c-4.01,0-7.31-1.47-9.88-4.4c-2.57-2.93-3.86-7.03-3.86-12.28c0-5.25,1.29-9.32,3.86-12.2
	c2.57-2.88,5.87-4.32,9.88-4.32c4.02,0,7.31,1.44,9.88,4.32c2.57,2.88,3.86,6.95,3.86,12.2
	C613.18,614.25,611.9,618.34,609.32,621.28z"/>
</svg>
